HIERARCHY
ROOT Hips
{
  OFFSET 0 0 0
  CHANNELS 6 Xposition Yposition Zposition Zrotation Yrotation Xrotation
  JOINT LeftThigh
  {
    OFFSET 8.409438 0 -5.917753
    CHANNELS 3 Zrotation Yrotation Xrotation
    JOINT LeftLeg
    {
      OFFSET 0 0 -42.358652
      CHANNELS 3 Zrotation Yrotation Xrotation
      JOINT LeftFoot
      {
        OFFSET 0 0 -39.357303
        CHANNELS 3 Zrotation Yrotation Xrotation
      }
    }
  }
  JOINT RightThigh
  {
    OFFSET -8.409438 0 -5.917753
    CHANNELS 3 Zrotation Yrotation Xrotation
    JOINT RightLeg
    {
      OFFSET 0 0 -42.358652
      CHANNELS 3 Zrotation Yrotation Xrotation
      JOINT RightFoot
      {
        OFFSET 0 0 -39.357303
        CHANNELS 3 Zrotation Yrotation Xrotation
      }
    }
  }
  JOINT SpineLow
  {
    OFFSET 0 0 4.719101
    CHANNELS 3 Zrotation Yrotation Xrotation
    JOINT SpineMid
    {
      OFFSET 0 0 12.899191
      CHANNELS 3 Zrotation Yrotation Xrotation
      JOINT Chest
      {
        OFFSET 0 0 12.899191
        CHANNELS 3 Zrotation Yrotation Xrotation
        JOINT LeftShoulder
        {
          OFFSET 7.550562 1.41573 9.438202
          CHANNELS 3 Zrotation Yrotation Xrotation
          JOINT LeftArm
          {
            OFFSET 9.155056 0 4.247191
            CHANNELS 3 Zrotation Yrotation Xrotation
            JOINT LeftForearm
            {
              OFFSET 0 0 25.771955
              CHANNELS 3 Zrotation Yrotation Xrotation
              JOINT LeftHand
              {
                OFFSET 0 0 25.197169
                CHANNELS 3 Zrotation Yrotation Xrotation
              }
            }
          }
        }
        JOINT RightShoulder
        {
          OFFSET -7.550562 1.41573 9.438202
          CHANNELS 3 Zrotation Yrotation Xrotation
          JOINT RightArm
          {
            OFFSET -9.155056 0 4.247191
            CHANNELS 3 Zrotation Yrotation Xrotation
            JOINT RightForearm
            {
              OFFSET 0 0 -25.771955
              CHANNELS 3 Zrotation Yrotation Xrotation
              JOINT RightHand
              {
                OFFSET 0 0 -25.197169
                CHANNELS 3 Zrotation Yrotation Xrotation
              }
            }
          }
        }
        JOINT Neck
        {
          OFFSET 0 0 15.101124
          CHANNELS 3 Zrotation Yrotation Xrotation
          JOINT Head
          {
            OFFSET 0 0 11.325843
            CHANNELS 3 Zrotation Yrotation Xrotation
            End Site
            {
              OFFSET 0 0 14.157303
            }
          }
        }
      }
    }
  }
}
MOTION
Frames: 8
Frame Time: 0.0
0.0  89.887642  0.0  12.696241  -18.580662  -120.573364  15.698289  -32.562723  -53.447132  55.089696  53.494052  125.177518  11.206568  3.328303  2.762491  -15.110794  6.886702  1.93502  18.767583  6.724829  36.186719  -1.469206  1.504457  0.448731  -0.389022  1.837932  3.00617  -0.834379  5.063127  8.202005  -0.834379  5.063127  8.202005  -16.523223  23.864658  4.963542  -127.442762  58.297758  -71.386508  -37.334936  -7.282061  67.861884  72.237021  2.383542  3.567177  2.781062  -1.953465  17.598502  120.64783  15.951214  54.563391  -11.919854  18.22428  -94.856663  101.994547  6.137999  -20.73717  10.839744  -0.034601  9.793922  8.132848  0.147918  7.348804  
0.0  89.887642  0.0  13.824711  -18.525065  -122.765438  16.213217  -34.796798  -56.89308  45.562749  52.499555  115.970142  11.501225  2.95707  3.663817  -17.026998  8.134573  3.502087  21.427016  6.763801  35.886865  -1.558043  1.687889  0.422472  -0.293057  1.957371  3.239459  -0.538138  5.378431  8.848851  -0.538138  5.378431  8.848851  -16.663347  24.739443  5.080825  -126.100256  58.020139  -70.078799  -37.021882  -7.327834  67.533116  71.520831  2.365208  4.404957  3.103861  -1.831299  18.131478  120.798221  16.502839  55.114353  -13.697833  16.381894  -94.196437  102.225474  6.067961  -20.247955  10.742633  0.091878  9.808695  8.057968  0.241541  7.357609  
0.0  89.887642  0.0  14.648786  -18.670093  -124.784046  16.099331  -37.93976  -59.374855  36.138552  50.832207  105.225038  10.864023  2.40436  4.500075  -18.249698  9.328679  5.097245  23.30738  6.780392  35.553836  -1.470672  1.796125  0.20463  -0.345903  1.991555  3.367972  -0.667281  5.479656  9.196705  -0.667281  5.479656  9.196705  -15.759209  26.161399  5.517227  -124.53457  57.901404  -68.718452  -37.042357  -7.480885  67.14723  71.188134  2.561726  4.688238  3.991748  -1.220079  19.405017  120.918062  17.70257  55.626556  -12.169726  15.246485  -94.792205  102.909155  4.680926  -19.237091  11.224253  0.413739  10.159755  8.414045  0.497321  7.615242  
0.0  89.887642  0.0  15.420642  -19.234556  -126.577172  16.116828  -41.361727  -60.999973  25.676648  49.55508  92.460941  10.771353  1.978226  5.444887  -18.086263  10.161988  6.854878  23.751588  7.163076  34.955811  -1.267138  1.928156  0.031907  -0.344  2.0227  3.451339  -0.650681  5.564901  9.425398  -0.650681  5.564901  9.425397  -14.831295  27.31488  6.15524  -122.967485  57.656834  -67.26466  -37.374673  -7.966905  66.521293  72.527043  3.625331  4.369143  4.503315  -0.656249  20.992774  121.257229  19.372685  55.956145  -10.813948  14.498737  -95.055611  103.747512  3.861719  -18.917053  11.699024  0.62062  10.511522  8.766601  0.667279  7.875121  
0.0  89.887642  0.0  16.106728  -19.852272  -128.032483  16.121269  -44.111382  -61.686259  13.508154  46.838747  77.865565  10.654097  1.363967  6.426993  -16.945454  10.398369  8.494382  22.892293  7.849781  34.466498  -1.011546  2.121801  -0.058589  -0.369763  2.005796  3.433457  -0.724999  5.522325  9.374161  -0.724999  5.522325  9.374161  -13.645889  28.733893  7.104283  -121.34214  57.260971  -66.064502  -37.777795  -7.721795  66.345798  72.230516  3.931558  4.752882  4.997582  0.207251  23.041662  121.471013  21.046446  56.044192  -9.695635  13.936328  -94.946286  105.622192  3.741659  -18.82056  12.336705  0.904437  11.19517  9.23947  0.905198  8.382017  
0.0  89.887642  0.0  16.609412  -20.361694  -129.040676  15.969753  -45.088322  -61.058843  -1.591986  41.909588  60.990845  11.185614  0.977982  7.757254  -15.956397  10.286336  9.639048  22.091684  8.401533  34.143002  -0.956329  2.311309  -0.064719  -0.449499  2.004613  3.352735  -0.949908  5.529456  9.146357  -0.949907  5.529456  9.146357  -12.28271  29.968855  8.109977  -119.63235  57.141766  -64.893917  -38.317977  -7.608622  66.198447  72.032329  4.131727  5.128618  5.636903  0.923743  24.85524  121.377608  22.286286  55.85323  -8.845347  13.628974  -94.924729  107.728045  3.712734  -18.932795  13.118575  1.095536  11.908964  9.82174  1.078464  8.912833  
0.0  89.887642  0.0  16.964847  -21.26885  -129.619846  15.817812  -44.158333  -58.917896  -18.525803  33.205454  43.991677  12.36867  0.808857  9.396403  -14.975557  9.81492  10.265257  21.858707  8.518469  33.973366  -1.078983  2.408246  -0.04023  -0.439067  1.948165  3.103185  -0.949646  5.371226  8.463675  -0.949646  5.371226  8.463675  -10.635735  31.289991  10.053847  -117.890322  57.042062  -63.863378  -38.790927  -7.518475  66.329177  71.968277  4.437015  5.516054  6.017616  1.533302  26.966473  121.038665  22.997063  55.449635  -8.570029  13.902087  -94.654864  108.676669  4.113752  -19.655203  13.798643  1.122336  13.060554  10.330307  1.138083  9.775714  
0.0  89.887642  0.0  17.315676  -22.603463  -130.127593  14.695285  -43.588706  -53.160146  -32.1945  21.108273  29.445906  14.098868  -0.338056  11.305385  -13.438689  9.027119  10.837236  21.440702  8.499761  33.88512  -0.707355  2.409785  0.030386  -0.220506  1.832968  2.828294  -0.38797  5.028112  7.727799  -0.38797  5.028112  7.727799  -9.680395  32.375332  12.473955  -116.685585  56.631552  -63.152357  -38.870791  -7.741754  66.26961  71.745606  4.671301  5.911292  5.657495  1.891545  28.953609  120.406138  23.33856  55.079923  -8.187448  13.798543  -94.392929  109.441299  4.11852  -20.060958  13.973045  1.050871  14.355286  10.461706  1.117971  10.748856  
